<?xml version="1.0" encoding="UTF-8"?>
<svg id="_レイヤー_2" data-name="レイヤー 2" xmlns="http://www.w3.org/2000/svg" xmlns:xlink="http://www.w3.org/1999/xlink" viewBox="0 0 331.89355 91.54883">
  <defs>
    <style>
      .cls-1 {
        fill: none;
      }

      .cls-2 {
        clip-path: url(#clippath);
      }

      .cls-3 {
        fill: #006934;
      }

      .cls-4 {
        fill: #8fc31f;
      }

      .cls-5 {
        fill: #dae000;
      }

      .cls-6 {
        fill: #22ac38;
      }

      .cls-7 {
        clip-path: url(#clippath-1);
      }

      .cls-8 {
        clip-path: url(#clippath-3);
      }

      .cls-9 {
        clip-path: url(#clippath-2);
      }

      .cls-10 {
        fill: url(#_名称未設定グラデーション);
      }
    </style>
    <clipPath id="clippath">
      <rect class="cls-1" width="102.94935" height="86.80043"/>
    </clipPath>
    <clipPath id="clippath-1">
      <rect class="cls-1" x="-16.14892" y="-12.11169" width="125.15411" height="125.15411"/>
    </clipPath>
    <clipPath id="clippath-2">
      <path class="cls-1" d="M40.51413,63.64396c5.31485-5.70096,8.71742-8.57414,11.39192-10.00282,.79181,1.38744,1.34662,8.43336,1.18001,9.4076-.58063,.21118-6.49027,.84846-10.06113,.84846-1.19417,0-2.12635-.07123-2.5108-.25325M61.06499,18.41574c-19.42999,7.36081-36.24297,22.92755-41.47576,29.89474-2.74781-.68143-11.67724-14.47961-14.67496-24.75608-.93843-3.21765-6.02793-.37362-4.91665,3.53337,5.3415,18.79105,10.29188,24.22335,14.38131,28.77387-5.21113,8.80198-9.3243,18.61819-4.20356,26.43884,2.58453,3.94698,9.66168,4.1819,13.52244,1.6561,4.37267-2.86068,8.85821-9.34846,14.23553-16.35272,0,0,8.95401,.24533,15.2885-1.31455-.0908,7.40829,.11663,15.24227,1.03506,17.32738,1.73857,3.94823,12.19082,2.66825,9.56339-2.8636-2.18092-4.59259-4.87708-21.78752-7.44994-31.07849-.45526-1.64402-1.59571-2.37502-2.72781-2.07096-4.30603,1.1596-24.98517,22.80675-28.15325,26.17934-2.79862,2.97856-5.87007,3.86784-7.91562,2.40876-2.46582-1.75898-2.29838-8.02974,4.96496-18.91475,9.8612-14.78034,28.6814-29.19206,42.43585-36.36668,2.65451-1.38453,1.49491-3.04854-1.1042-3.04896-.81722,0-1.77689,.16453-2.80529,.55439"/>
    </clipPath>
    <linearGradient id="_名称未設定グラデーション" data-name="名称未設定グラデーション" x1="-249.16898" y1="-276.16948" x2="-248.75246" y2="-276.16948" gradientTransform="translate(53783.16925 -48404.77782) rotate(-90) scale(194.62656)" gradientUnits="userSpaceOnUse">
      <stop offset="0" stop-color="#fff100"/>
      <stop offset=".06285" stop-color="#dadd07"/>
      <stop offset=".16011" stop-color="#a7c211"/>
      <stop offset=".26211" stop-color="#7aaa1a"/>
      <stop offset=".36683" stop-color="#549622"/>
      <stop offset=".475" stop-color="#358528"/>
      <stop offset=".58781" stop-color="#1e792d"/>
      <stop offset=".70718" stop-color="#0d7031"/>
      <stop offset=".83764" stop-color="#036a33"/>
      <stop offset="1" stop-color="#006934"/>
    </linearGradient>
    <clipPath id="clippath-3">
      <rect class="cls-1" x="-12.6068" y="-8.56957" width="118.06988" height="118.06988"/>
    </clipPath>
  </defs>
  <g id="_レイヤー_1-2" data-name="レイヤー 1">
    <g>
      <g class="cls-2">
        <g id="_アートワーク_144" data-name="アートワーク 144">
          <g class="cls-7">
            <g class="cls-9">
              <rect class="cls-10" x="-1.11367" y="17.86136" width="68.74265" height="69.70356"/>
            </g>
            <g class="cls-8">
              <path class="cls-6" d="M94.33644,19.26033c0,2.2788-1.8477,4.12567-4.12651,4.12567-2.27797,0-4.12525-1.84687-4.12525-4.12567s1.84728-4.12608,4.12525-4.12608c2.2788,0,4.12651,1.84728,4.12651,4.12608"/>
              <path class="cls-4" d="M97.61003,28.45925c0,1.26999-1.02923,2.29963-2.29922,2.29963-1.26957,0-2.29963-1.02965-2.29963-2.29963s1.03006-2.29963,2.29963-2.29963c1.26999,0,2.29922,1.02965,2.29922,2.29963"/>
              <path class="cls-5" d="M98.76033,36.51473c0,.63478-.51483,1.14961-1.14961,1.14961-.6352,0-1.15003-.51483-1.15003-1.14961s.51483-1.15002,1.15003-1.15002c.63478,0,1.14961,.51524,1.14961,1.15002"/>
              <path class="cls-3" d="M84.59428,9.37418c0,4.06819-3.29762,7.36623-7.36581,7.36623s-7.36581-3.29803-7.36581-7.36623,3.29762-7.36621,7.36581-7.36621,7.36581,3.29803,7.36581,7.36621"/>
            </g>
          </g>
        </g>
      </g>
      <g>
        <path class="cls-3" d="M108.32324,73.97559h3.94092c1.22461,0,1.99707-.05322,2.84912-.15967v3.00879c-.87891-.08008-1.73096-.1333-2.87598-.1333h-2.98193c1.5708,2.7959,3.86084,5.05908,6.62988,6.62988-.93164,.90527-1.27783,1.41113-1.86377,2.76953-1.11816-.82568-1.94385-1.59766-2.98193-2.7959-1.38477-1.59766-1.94385-2.39648-2.84912-4.07373,.07959,.90527,.10645,1.86377,.10645,2.63574v3.35498c0,1.30469,.05322,2.23682,.15967,3.08887h-3.06201c.10645-.87891,.15967-1.86426,.15967-3.08887v-3.16846c0-.74561,.02686-1.7041,.10645-2.74268-1.73047,3.03564-3.59424,5.08594-6.31055,6.89648-.66553-1.25146-1.06494-1.86377-1.65088-2.52979,2.84912-1.59766,5.16553-3.99365,6.79004-6.97607h-1.75732c-1.17188,0-2.02393,.05322-2.90234,.15967v-1.0918c-.47949,.66602-.79883,1.27832-1.14502,2.23682-.69238-1.0918-1.11816-1.94385-1.62402-3.32812,.05322,.87842,.10645,2.34277,.10645,3.51465v6.81641c0,1.41113,.05322,2.42285,.15967,3.2749h-3.08887c.10645-.87842,.15967-1.89062,.15967-3.2749v-5.72461c0-1.06543,.02686-1.75732,.18652-3.43506-.77197,2.63623-1.5708,4.47314-2.7959,6.28369-.31934-1.25146-.66553-2.0498-1.22461-2.95557,1.33154-1.67725,2.71582-4.8457,3.56787-8.04102h-1.06494c-.79883,0-1.30469,.02686-1.78418,.1333v-2.87598c.45264,.10645,.93213,.1333,1.78418,.1333h1.33105v-2.15674c0-1.38477-.05322-2.07715-.15967-2.74268h3.06201c-.07959,.69238-.13281,1.49121-.13281,2.74268v2.15674h.79883c.66553,0,.98486-.02686,1.4375-.10645v2.63574c1.06543-1.89014,1.94385-4.71289,2.02393-6.47021l2.71582,.69238c-.10645,.29297-.18652,.58594-.39941,1.43799-.15967,.6123-.21289,.79883-.34619,1.30469h2.15674v-1.8374c0-1.11816-.05322-1.83691-.15967-2.5293h3.08887c-.10693,.66553-.16016,1.41113-.16016,2.5293v1.8374h3.14209c1.30469,0,2.07666-.05322,2.84912-.15967v2.92871c-.77246-.10645-1.65088-.15967-2.84912-.15967h-3.14209v3.35498Zm-5.8042-3.35498c-.50635,1.22461-.69238,1.62402-1.49121,2.95557q-.63916-.66553-2.18359-1.73096c.23975-.31934,.31982-.42578,.45264-.63867-.37256-.05322-.8252-.08008-1.30469-.08008h-.66553c.55908,1.38477,1.33154,2.6626,2.50293,4.20703v-1.51758c.85205,.10645,1.62402,.15967,2.90234,.15967h2.82227v-3.35498h-3.03516Z"/>
        <path class="cls-3" d="M138.9458,68.25098c1.25146,0,1.91699-.02686,2.58301-.16016v2.98242c-.74561-.10645-1.78418-.15967-3.11572-.15967h-3.88721c.23975,4.63281,.8252,7.80127,1.86377,10.25098,.50586,1.17188,1.03857,2.07715,1.59766,2.63623,.26611,.26611,.53271,.479,.6123,.479,.31934,0,.63916-1.27783,.98535-4.04688,1.11816,.79883,1.5708,1.06494,2.5293,1.49072-.39941,2.55615-.85205,4.04736-1.51758,5.00586-.50586,.71924-1.14502,1.11865-1.8374,1.11865-1.01172,0-2.36963-1.01221-3.54102-2.58301-1.35791-1.89062-2.37012-4.57959-2.95557-8.01465-.37305-2.15674-.42627-2.63574-.63916-6.33691h-10.65088c-1.17139,0-2.12988,.05322-3.11523,.15967v-2.98242c.82568,.10693,1.81055,.16016,3.11523,.16016h10.54443q-.08008-1.38477-.08008-2.18359c0-.66553-.07959-1.59766-.15967-2.07666h3.22168c-.07959,.66553-.10645,1.38428-.10645,2.15674,0,.45264,0,1.22461,.02686,2.10352h3.1416c-.74512-1.19824-1.35791-1.94385-2.5293-3.14209l2.31641-1.0918c1.14502,1.14502,1.46436,1.49121,2.63623,3.00879l-2.15674,1.2251h1.11816Zm-17.44043,8.52051c-1.01172,0-1.94385,.05322-2.68945,.13281v-2.82227c.66602,.08008,1.57129,.1333,2.74268,.1333h6.44385c1.17139,0,2.02344-.05322,2.68896-.1333v2.82227c-.77197-.07959-1.65088-.13281-2.6626-.13281h-1.83691v6.04395c1.86377-.37256,2.90186-.58545,5.45801-1.22461v2.71582c-4.49951,1.0918-8.70654,1.94385-12.27441,2.47607-.23975,.05322-.53271,.10693-.98535,.18652l-.47949-3.00879c1.11865,0,2.37012-.15967,5.35205-.6123v-6.57666h-1.75732Z"/>
        <path class="cls-3" d="M149.54492,72.35107c-1.65088,1.06543-2.39648,1.46484-4.26025,2.29004-.45264-1.06494-.87842-1.81055-1.54443-2.71582,2.87598-1.14502,4.65967-2.13037,6.68359-3.70117,1.75732-1.35791,3.11523-2.76904,4.20703-4.47314h3.16846c1.41113,1.97021,2.47607,3.00879,4.5,4.41992,2.26318,1.59766,4.41992,2.71582,6.84277,3.59473-.74561,1.14502-1.0918,1.89062-1.46436,2.98193-1.67725-.71875-2.68945-1.25146-4.55322-2.42285v2.07666c-.69238-.07959-1.38428-.10645-2.39648-.10645h-8.89307c-.77246,0-1.5708,.02686-2.29004,.10645v-2.05029Zm-1.46436,6.87012c-1.35791,0-2.26318,.05322-3.14209,.15967v-3.08887c.87891,.10645,1.89062,.15967,3.14209,.15967h16.58838c1.30469,0,2.23682-.05322,3.11523-.15967v3.08887c-.87842-.10645-1.78369-.15967-3.11523-.15967h-9.15967c-.8252,1.94336-1.65088,3.51465-2.76904,5.16553q4.71289-.2666,8.44043-.66602c-.85205-.93164-1.30469-1.41113-2.79541-2.95557l2.63574-1.17139c2.84912,2.87549,3.99414,4.20703,6.15088,7.10938l-2.55615,1.67725c-.87891-1.30469-1.14502-1.67725-1.59766-2.31641-2.20996,.29297-3.80762,.47949-4.79297,.58594-2.63574,.23975-7.90771,.71875-8.97314,.79883-1.49072,.10645-2.82227,.23926-3.43457,.37256l-.42627-3.24854c.71924,.05322,1.17188,.08008,1.54443,.08008,.18652,0,.98535-.02686,2.34326-.10645,1.30469-1.9707,2.12988-3.51465,2.84912-5.3252h-4.04736Zm12.62109-7.69531c.42578,0,.66553,0,1.17139-.02686-2.44971-1.67725-3.96729-3.06201-5.56494-5.16553-1.41113,1.89062-3.06201,3.43506-5.53809,5.16553,.45264,.02686,.6123,.02686,1.09131,.02686h8.84033Z"/>
        <path class="cls-3" d="M177.58447,85.50488c0,1.25146,.02686,1.91699,.1333,2.71582h-3.22168c.13281-.79883,.15967-1.51758,.15967-2.76904v-6.68311c-1.03857,.9585-1.59766,1.38428-2.95557,2.26318-.31934-1.01221-.79883-1.9707-1.35791-2.76953,1.86377-1.06494,3.14209-2.07666,4.57959-3.59424,1.25146-1.30469,2.02393-2.39648,2.90234-4.10059h-4.33984c-.95898,0-1.51807,.02637-2.23682,.10645v-2.95557c.66553,.08008,1.22461,.10645,2.10352,.10645h1.33105v-2.23633c0-.69238-.05322-1.41162-.15967-2.02393h3.22217c-.10693,.6123-.16016,1.19824-.16016,2.07715v2.18311h1.0918c.82568,0,1.19824-.02637,1.54443-.07959l1.27783,1.38428c-.23926,.39941-.39893,.66553-.58545,1.11865-.87891,1.91699-1.38477,2.79541-2.6626,4.55273,1.25146,1.41113,2.47607,2.37012,4.2334,3.38184-.63916,.85205-1.03857,1.59766-1.46436,2.60938-1.38477-.90527-2.29004-1.67773-3.43506-3.00879v7.72168Zm11.29004-1.25146h3.19482c1.33154,0,2.20996-.05322,3.03564-.15967v3.22168c-.93213-.1333-1.97021-.18652-3.03564-.18652h-9.10596c-1.06543,0-2.07715,.05322-3.00879,.18652v-3.22168c.85205,.10645,1.78369,.15967,3.06201,.15967h2.90234v-10.41113h-1.99707c-.90527,0-1.75732,.05322-2.60938,.1333v-3.00879c.77197,.10645,1.46436,.13281,2.60938,.13281h1.99707v-4.68604c0-1.0918-.05322-1.73096-.18652-2.76904h3.32812c-.15967,1.06494-.18604,1.62402-.18604,2.76904v4.68604h2.82227c1.19824,0,1.86377-.02637,2.60938-.13281v3.00879c-.85205-.08008-1.67725-.1333-2.60938-.1333h-2.82227v10.41113Z"/>
        <path class="cls-3" d="M205.11816,86.33008c.1333-1.01172,.21338-2.07666,.21338-3.43457v-5.27197l-6.15088-9.74561c-.39941-.63916-1.01172-1.51758-1.86377-2.74219h4.65967c.21289,.71875,.55908,1.4375,1.27783,2.60938l3.86084,6.5498,3.91406-6.52344c.66602-1.14502,1.06543-1.94385,1.25146-2.63574h4.6333c-.37305,.53223-1.38477,1.99658-1.8374,2.74219l-6.15088,9.77197v5.24561c0,1.33105,.05371,2.42285,.21338,3.43457h-4.021Z"/>
        <path class="cls-3" d="M240.79932,86.33008c-.15967-.87842-.45264-2.02344-.74561-2.79541l-1.06494-2.90234h-8.52051l-1.06494,2.90234c-.47949,1.27783-.58594,1.67725-.79883,2.79541h-4.3667c.39941-.71875,.93164-1.91699,1.41113-3.1416l5.85791-15.36377c.50586-1.33105,.71875-1.99707,.85205-2.68896h4.63281c.1333,.63867,.29297,1.06494,.90527,2.68896l5.91113,15.36377c.66602,1.7041,.98535,2.44971,1.35791,3.1416h-4.3667Zm-5.61816-16.6416c-.10645-.29297-.18652-.6123-.479-1.49072q-.42627,1.25146-.50586,1.49072l-2.76953,7.88184h6.60352l-2.84912-7.88184Z"/>
        <path class="cls-3" d="M249.45459,86.94287c1.03809,1.4375,2.20996,2.02344,4.12695,2.02344,2.05029,0,3.62109-.71875,4.3667-1.99707,.45264-.79883,.63916-1.73047,.69238-3.5415-1.33154,1.67773-2.90234,2.42334-5.21875,2.42334-4.23389,0-6.94971-2.90234-6.94971-7.45557,0-4.60645,2.7959-7.58838,7.10938-7.58838,2.36963,0,3.94092,.71875,5.08545,2.34277-.05322-.53223-.05322-.58545-.05322-.87842v-1.2251h3.56836c-.1333,1.14502-.18652,1.89062-.18652,3.32861v8.91992c0,3.19531-.69238,5.24512-2.23682,6.5498-1.33105,1.0918-3.54102,1.7041-6.28369,1.7041-3.11523,0-4.87256-.71875-6.68311-2.76904l2.6626-1.83691Zm1.73047-4.79297c.66553,.71875,1.81055,1.19824,2.82275,1.19824,1.46436,0,2.95508-.85205,3.70068-2.10352,.50586-.82568,.74561-1.81055,.74561-3.03564,0-1.7041-.53223-3.03516-1.59766-3.94043-.74512-.6123-1.62402-.9585-2.58252-.9585-2.6626,0-4.31348,1.99658-4.31348,5.16553,0,1.5708,.42578,2.87549,1.22461,3.67432Z"/>
        <path class="cls-3" d="M268.28027,79.56689c.13281,1.46484,.37256,2.21045,.98486,2.98242,.77246,.9585,1.9707,1.49121,3.32861,1.49121,1.30469,0,2.42285-.47949,3.19482-1.33154,.31982-.37256,.50635-.66553,.77246-1.38477l3.14209,1.01221c-.61279,1.27783-.95898,1.78369-1.62451,2.44971-1.38428,1.35791-3.24854,2.0498-5.48486,2.0498-4.71289,0-7.69531-3.1416-7.69531-8.12109,0-4.92578,2.95557-8.14746,7.50879-8.14746,3.11523,0,5.56494,1.54443,6.62988,4.20703,.50586,1.27783,.69238,2.23633,.77246,4.04736,0,.05322,0,.13281,.05322,.74512h-11.58252Zm8.12109-2.63574c-.18652-1.17188-.50586-1.89062-1.17188-2.55615-.71875-.71875-1.62402-1.06494-2.87549-1.06494-2.07666,0-3.59473,1.38428-3.99414,3.62109h8.0415Z"/>
        <path class="cls-3" d="M282.49951,86.33008c.15967-1.14453,.21289-1.97021,.21289-3.46143v-8.36084c0-1.46436-.05322-2.36963-.21289-3.46143h3.62109v1.41162c0,.39941,0,.479-.05322,1.14453,1.62451-2.07666,3.03564-2.82227,5.43164-2.82227,2.05029,0,3.56836,.66553,4.52686,1.97021,.63916,.87891,.90527,1.94385,.90527,3.72803v6.39014c0,1.46484,.05322,2.47656,.21289,3.46143h-3.86084c.1333-1.19824,.18652-2.10352,.18652-3.46143v-5.91113c0-1.11816-.1333-1.83691-.45264-2.34277-.42627-.69238-1.2251-1.0918-2.23682-1.0918-1.91699,0-3.48779,1.33105-4.65967,3.96729v5.37842c0,1.30469,.05322,2.31689,.21289,3.46143h-3.83398Z"/>
        <path class="cls-3" d="M311.04395,76.15869c-.29297-.8252-.47949-1.19775-.82568-1.62402-.63867-.79883-1.5708-1.22461-2.74219-1.22461-2.60938,0-4.23389,2.05029-4.23389,5.35156,0,3.32861,1.65088,5.37891,4.34033,5.37891,1.33105,0,2.39648-.53271,3.06201-1.49121,.23975-.37256,.37256-.66553,.53271-1.33154l3.30127,.66602c-.37256,1.06494-.63867,1.62402-1.11816,2.26318-1.27783,1.75732-3.32812,2.68896-5.85791,2.68896-4.68604,0-7.72168-3.16846-7.72168-8.09424,0-2.50293,.79883-4.65967,2.26318-6.15088,1.30469-1.33105,3.16895-2.02344,5.35205-2.02344,2.60938,0,4.68652,1.01172,5.96436,2.87549,.34619,.53271,.55908,.9585,.93213,1.94385l-3.24854,.77197Z"/>
        <path class="cls-3" d="M317.16895,74.34814c-1.17139-2.63574-1.19824-2.71582-1.51758-3.30176h4.04736c.13281,.77246,.53223,2.02393,1.01172,3.11572l3.24854,7.56152,2.95508-7.53516c.63916-1.62402,.85254-2.29004,1.01221-3.14209h3.96729c-.15967,.34619-.63916,1.43799-1.43799,3.30176l-6.0708,14.24561c-.85205,2.02344-2.42285,2.95508-4.89941,2.95508-.79883,0-1.5708-.07959-2.7959-.31934l.61279-3.03516c.74561,.31934,1.25146,.45264,1.86377,.45264,.93164,0,1.7041-.50635,2.07666-1.33154l.90527-2.05029-4.979-10.91699Z"/>
      </g>
    </g>
  </g>
</svg>